<svg xmlns="http://www.w3.org/2000/svg" viewBox="0 0 1200 630">
  <defs>
    <linearGradient id="bg" x1="0%" y1="0%" x2="100%" y2="100%">
      <stop offset="0%" stop-color="#08101d" />
      <stop offset="50%" stop-color="#07111f" />
      <stop offset="100%" stop-color="#0d1a2f" />
    </linearGradient>
    <radialGradient id="accentA" cx="20%" cy="20%" r="60%">
      <stop offset="0%" stop-color="#45f0d1" stop-opacity=".35" />
      <stop offset="100%" stop-color="#45f0d1" stop-opacity="0" />
    </radialGradient>
    <radialGradient id="accentB" cx="80%" cy="25%" r="50%">
      <stop offset="0%" stop-color="#6cc8ff" stop-opacity=".3" />
      <stop offset="100%" stop-color="#6cc8ff" stop-opacity="0" />
    </radialGradient>
  </defs>
  <rect width="1200" height="630" fill="url(#bg)" />
  <rect width="1200" height="630" fill="url(#accentA)" />
  <rect width="1200" height="630" fill="url(#accentB)" />
  <g opacity=".18" stroke="#ffffff">
    <path d="M0 120H1200" />
    <path d="M0 220H1200" />
    <path d="M0 320H1200" />
    <path d="M0 420H1200" />
    <path d="M0 520H1200" />
    <path d="M180 0V630" />
    <path d="M380 0V630" />
    <path d="M580 0V630" />
    <path d="M780 0V630" />
    <path d="M980 0V630" />
  </g>
  <text x="96" y="128" fill="#45f0d1" font-size="34" font-family="IBM Plex Sans, Arial, sans-serif" letter-spacing="9">
    PADPULSE
  </text>
  <text x="96" y="250" fill="#f7fbff" font-size="92" font-weight="800" font-family="Sora, Arial, sans-serif">
    Test controllers
  </text>
  <text x="96" y="342" fill="#f7fbff" font-size="92" font-weight="800" font-family="Sora, Arial, sans-serif">
    from the browser
  </text>
  <text x="96" y="430" fill="#93a7c1" font-size="34" font-family="IBM Plex Sans, Arial, sans-serif">
    Drift, deadzone, triggers, buttons, polling and model detection.
  </text>
  <g transform="translate(765 120)">
    <rect width="320" height="320" rx="52" fill="rgba(255,255,255,.03)" stroke="rgba(255,255,255,.12)" />
    <path
      d="M70 125c20-28 55-42 110-42s90 14 110 42c18 24 24 58 13 91l-13 38c-4 13-16 21-31 21-12 0-24-7-30-19l-14-28H105l-14 28c-6 12-18 19-30 19-15 0-27-8-31-21l-13-38c-11-33-5-67 13-91Z"
      fill="none"
      stroke="#45f0d1"
      stroke-width="14"
      stroke-linejoin="round"
    />
    <circle cx="111" cy="177" r="18" fill="#45f0d1" />
    <circle cx="209" cy="177" r="18" fill="#6cc8ff" />
    <circle cx="244" cy="132" r="11" fill="#ffb84d" />
    <circle cx="273" cy="161" r="11" fill="#ff6b7d" />
    <circle cx="215" cy="161" r="11" fill="#d4ff63" />
    <circle cx="244" cy="190" r="11" fill="#f7fbff" />
  </g>
  <text x="96" y="548" fill="#93a7c1" font-size="26" font-family="IBM Plex Sans, Arial, sans-serif">
    Christopher David Alberto Roque - White Assassins | AEWhiteDevs
  </text>
</svg>
